<svg width="11" height="20" viewBox="0 0 11 20" fill="none" xmlns="http://www.w3.org/2000/svg">
<path d="M11 10C11 10.1459 10.97 10.2842 10.91 10.4147C10.8575 10.5376 10.7788 10.6528 10.6738 10.7604L1.76585 19.6889C1.56339 19.8963 1.31595 20 1.02352 20C0.83606 20 0.663599 19.9539 0.506135 19.8618C0.348671 19.7696 0.224949 19.6429 0.134969 19.4816C0.0449898 19.328 0 19.1513 0 18.9516C0 18.6674 0.0974778 18.4178 0.292434 18.2028L8.48057 10L0.292434 1.79724C0.0974778 1.58218 0 1.33257 0 1.04839C0 0.848694 0.0449898 0.672043 0.134969 0.518433C0.224949 0.357143 0.348671 0.230415 0.506135 0.138249C0.663599 0.046083 0.83606 0 1.02352 0C1.31595 0 1.56339 0.0998464 1.76585 0.299539L10.6738 9.23963C10.7788 9.34716 10.8575 9.46621 10.91 9.59677C10.97 9.71966 11 9.85407 11 10Z" fill="white"/>
</svg>
