<svg width="25" height="25" viewBox="0 0 25 25" fill="none" xmlns="http://www.w3.org/2000/svg">
<path d="M12.5 0C19.4036 0 25 5.59644 25 12.5C25 19.4036 19.4036 25 12.5 25C5.59644 25 0 19.4036 0 12.5C0 5.59644 5.59644 0 12.5 0ZM9.48633 6.91504C9.2083 6.91514 8.97535 7.01576 8.78711 7.2168C8.60311 7.41364 8.51081 7.68311 8.51074 8.02539V17.2852C8.51081 17.6317 8.60311 17.9037 8.78711 18.1006C8.97532 18.3015 9.20841 18.4022 9.48633 18.4023C9.62756 18.4023 9.76479 18.3781 9.89746 18.3311C10.0301 18.284 10.1756 18.2133 10.334 18.1191L17.9619 13.7021C18.2486 13.5353 18.4591 13.3748 18.5918 13.2207C18.7245 13.0666 18.791 12.8779 18.791 12.6553C18.791 12.437 18.7244 12.2508 18.5918 12.0967C18.4591 11.9383 18.2487 11.7779 17.9619 11.6152L10.334 7.19141C10.1756 7.10153 10.0301 7.03243 9.89746 6.98535C9.76484 6.93832 9.6275 6.91504 9.48633 6.91504Z" fill="white"/>
</svg>
