<svg width="25" height="24" viewBox="0 0 25 24" fill="none" xmlns="http://www.w3.org/2000/svg">
<path d="M9.24723 9.77734C9.24723 10.1202 9.52381 10.3921 9.88456 10.3921H21.1881C21.5127 10.3921 21.7893 10.1202 21.7893 9.77734C21.7893 9.43448 21.5127 9.16256 21.1881 9.16256H9.88456C9.52381 9.16256 9.24723 9.43448 9.24723 9.77734Z" fill="white"/>
<path d="M9.24723 12.5202C9.24723 12.8631 9.52381 13.135 9.88456 13.135H21.1881C21.5127 13.135 21.7893 12.8631 21.7893 12.5202C21.7893 12.1773 21.5127 11.9054 21.1881 11.9054H9.88456C9.52381 11.9054 9.24723 12.1773 9.24723 12.5202Z" fill="white"/>
<path d="M9.24723 15.2649C9.24723 14.9244 9.52805 14.6483 9.87446 14.6483H17.0856C17.432 14.6483 17.7128 14.9244 17.7128 15.2649C17.7128 15.6055 17.432 15.8816 17.0856 15.8816H9.87446C9.52805 15.8816 9.24723 15.6055 9.24723 15.2649Z" fill="white"/>
<path d="M3.54738 18.8453C1.19048 18.8453 0 17.6749 0 15.3931V3.45222C0 1.15862 1.19048 0 3.54738 0H15.6205C17.9654 0 19.1679 1.18227 19.1679 3.45222V5.15468H21.4526C23.7975 5.15468 25 6.32512 25 8.6069V20.536C25 22.8177 23.7975 24 21.4526 24H9.37951C7.02261 24 5.83213 22.8296 5.83213 20.536V18.8453H3.54738ZM3.57143 17.3793H5.83213V8.6069C5.83213 6.3133 7.02261 5.15468 9.37951 5.15468H17.6768V3.53498C17.6768 2.16355 16.9192 1.46601 15.5964 1.46601H3.57143C2.22463 1.46601 1.4911 2.16355 1.4911 3.53498V15.3103C1.4911 16.6818 2.22463 17.3793 3.57143 17.3793ZM9.40356 22.534H21.4286C22.7513 22.534 23.5089 21.8246 23.5089 20.465V8.67783C23.5089 7.31823 22.7513 6.60887 21.4286 6.60887H9.40356C8.05676 6.60887 7.32323 7.31823 7.32323 8.67783V20.465C7.32323 21.8246 8.05676 22.534 9.40356 22.534Z" fill="white"/>
</svg>
