<svg width="32" height="35" viewBox="0 0 32 35" fill="none" xmlns="http://www.w3.org/2000/svg">
<path d="M2.96875 34.9414C2.1224 34.9414 1.41276 34.6354 0.839844 34.0234C0.279948 33.4245 0 32.5977 0 31.543V3.37891C0 2.33724 0.279948 1.51693 0.839844 0.917969C1.41276 0.30599 2.1224 0 2.96875 0C3.39844 0 3.8151 0.0716146 4.21875 0.214844C4.6224 0.358073 5.0651 0.566406 5.54688 0.839844L28.75 14.2969C29.6224 14.7917 30.2604 15.2799 30.6641 15.7617C31.0677 16.2305 31.2695 16.7969 31.2695 17.4609C31.2695 18.138 31.0677 18.7109 30.6641 19.1797C30.2604 19.6484 29.6224 20.1367 28.75 20.6445L5.54688 34.082C5.0651 34.3685 4.6224 34.5833 4.21875 34.7266C3.8151 34.8698 3.39844 34.9414 2.96875 34.9414Z" fill="white"/>
</svg>
